<svg xmlns="http://www.w3.org/2000/svg" viewBox="0 0 1000 1000"><defs><style>.cls-1{fill:#fff;}</style></defs><title>logo</title><g id="Camada_1" data-name="Camada 1"><path class="cls-1" d="M845.41,131.32A572.44,572.44,0,0,0,785,109.88c-92.17-27.17-186.67-36-306.63-36.15-39.52-.17-103,4.09-166,14.77C257.44,97.8,204,112.07,152.61,133.8c-17.94,7.59-27.56,20.6-28.86,40.2-.51,7.84.1,15.57.13,23.35a1110.84,1110.84,0,0,0,19.46,203.48c35.29,186,122.65,342.08,266.43,466,23.91,20.61,48.66,40.14,74.47,58.31,15.39,10.84,20.36,10.77,35.78,0,7.47-5.2,14.76-10.66,22-16.11,109.55-82.13,197-182.54,255.06-307.43C835,520,858,434.1,870.24,345.15c7.21-52.57,9.9-105.45,10.85-158.45C881.64,155.73,873.65,143.19,845.41,131.32ZM778.52,615.81C724,724.11,645.78,812.41,550,885.76c-9.81,7.51-19.72,14.9-29.87,21.9-14.33,9.88-17.86,9.84-32.29-.21a889.14,889.14,0,0,1-74.43-58.33c-141.48-122.78-225.79-277.5-258.18-461.4-11.59-65.82-16.47-132.12-17-198.85-.19-23,9.41-38.57,31.26-47.53,63-25.81,128.53-40.78,195.84-48.86a1105.74,1105.74,0,0,1,139.14-7.94c95,.32,188.8,9.19,280.08,37.24a607.73,607.73,0,0,1,58.35,21.49c17.94,7.6,26.95,21.52,27,40.33C870.14,334.13,847,479.79,778.52,615.81Z"/><path class="cls-1" d="M219.28,558.29c-4.32-2.43-4.32-6-5.43-8.81-43.51-111.38-64.21-227-64.59-346.44,0-7.79-.57-15.59-.41-23.37.05-2.25-.6-5.88,2.65-6.58,3-.63,4.21,2.54,5.78,4.48,4.72,5.83,6.07,12.66,6.39,20,2,47.38,4.11,94.75,8.93,142,7.14,70.06,22.29,138.31,44.3,205.12,1.11,3.37,2.2,6.76,3.11,10.2C220.22,555.68,219.65,556.67,219.28,558.29Z"/><path class="cls-1" d="M319.54,176.66c0,14.21-.47,28.44.19,42.62.34,7.18-3.26,8-8.66,8.27-7.71.39-4-5.52-4.06-8.23-.34-24.08.18-48.17-.42-72.23-.19-7.46,3.74-8.1,9-9.44,6.56-1.67,6.61,3.15,7.88,6.93,4.8,14.36,9.58,28.73,14.85,44.56,5.28-17.83,10-34.28,15.1-50.65.94-3,.82-6.69,6-7.62,6.94-1.24,10.45-1.63,10.2,7.59-.68,24.38-.54,48.8,0,73.2.15,7.11-3.14,7.83-8.63,8.18-7.88.5-4-5.35-4.08-8-.44-13.64-.21-27.31-1.36-41.26l-17.11,54.63C330.53,208.93,327,192.16,319.54,176.66Z"/><path class="cls-1" d="M794.22,158.49c8.13,1,10.44,5.41,10.25,13.67-.63,26-.23,51.93-.23,77.93-8.18.11-11.61-4.2-14.28-11-7.32-18.56-15.41-36.81-24.73-55v54.52c-9.5-.07-13-3.4-12.69-12.81.74-25.94.25-51.91.25-77.64,10.15-1,14.4,4.28,17.43,12.44,5.63,15.17,12.09,30,18.21,45,4.71.1,2.67-3.58,2.7-5.5.22-11.65,0-23.3.23-35C791.41,162.89,789.24,159,794.22,158.49Z"/><path class="cls-1" d="M650.56,173.72c0-12.67,0-25.35,0-38,0-3.08-1-7,4.57-6.18,4,.61,8.82-.61,8.54,6.23-.33,8.11.34,16.28-.22,24.36-.38,5.62,2.08,7.06,6.94,7.93C689,171.37,689,171.51,689,153.09c0-3.58-.27-7.18.08-10.72.29-2.9-2.3-7.87,4.36-7.15,4.93.53,9.25.33,9.11,7.89-.49,25.34-.13,50.7-.29,76,0,2.19,2.12,7-3.27,5.84-3.77-.78-10,1.32-10-6,0-9.75-.25-19.51.09-29.25.18-5-1.62-6.64-6.45-7.38-19-2.89-19-3.06-19,15.86,0,4.55.23,9.12-.08,13.65-.22,3.2,2.39,8.35-4.88,7.63-5.11-.51-8.49-1.17-8.24-7.74C650.9,199.08,650.56,186.4,650.56,173.72Z"/><path class="cls-1" d="M594,169.8c.92,8.76.63,17,4.14,24.57,3.18,6.87,8,11.84,15.94,9.14,8.53-2.89,6.16-11.06,6.49-17.61.12-2.4-1.58-3.51-3.83-3.29-8.49.81-6.39-5.43-6-9.67.55-6.36,5.41-2.78,8.27-2.59,15.36,1,15.36,1.12,15.35,16.8,0,.65,0,1.3,0,1.95-.07,17.5-4,24.51-16.73,26-19.49,2.29-27.35-2-32.76-17.94a85.52,85.52,0,0,1,.67-58.18c4-10.87,11.81-15.58,22.36-15.35,11.45.25,20,6.09,23.56,16.89.79,2.44,5.27,7.17-1.17,8.22-3.76.62-9.71,5.41-11.62-3a10.38,10.38,0,0,0-5.71-7.54c-6.43-2.75-11.2-.73-14.34,5.67C594.39,152.34,594.83,161.53,594,169.8Z"/><path class="cls-1" d="M201.43,244.5l28.41-9.29c2.63,9,.42,13.73-8.77,16-9.68,2.36-18.93,6.56-28.26,10.23-3.88,1.53-5.23.76-5.21-3.46.08-26.93,0-53.86.07-80.79,0-7.62,7.23-7.24,11.3-7.76,4.68-.59,2.29,4.89,2.32,7.49C201.53,199.19,201.43,221.51,201.43,244.5Z"/><path class="cls-1" d="M823.08,169.18c10,.45,13.7,4.56,13.37,14.57-.8,23.31-.15,46.67-.4,70,0,2.75,2.74,8.52-2.92,7.86-4.11-.48-10.38-1-10.2-8.93.45-20.74.15-41.49.15-62.23Z"/><path class="cls-1" d="M734,187.42c0,12,.17,24.08-.13,36.11-.06,2.73,2.73,8.27-3.92,7.29-4.38-.64-9.72-.34-9.24-8,.7-11.35.18-22.77.18-34.16,0-13.34-.15-26.68.12-40,.06-2.79-2.65-8,4.11-7.46,5,.45,9.39.87,9,8.21C733.52,162,734,174.73,734,187.42Z"/><path class="cls-1" d="M530.32,625.72l2.22-2.24c7.46,1.81,8.06,8.43,9.63,14.16a37.12,37.12,0,0,1,1.23,10.58c-.34,1.59-.93,2.91-2.93,2.71C532.59,644.34,534.23,633.91,530.32,625.72Z"/><path class="cls-1" d="M540.47,650.93q.81-.46,1.59-1c4.21-3.19,5.83.34,7.79,3l2.2.12C547.63,655.41,543.19,657.87,540.47,650.93Z"/><path class="cls-1" d="M680.18,551.22l2.63.2a5.13,5.13,0,0,1-3.47,4l-4.51-.21C674.7,551.37,677.3,551.12,680.18,551.22Z"/><path class="cls-1" d="M581.48,432.22c-9.45.74-17.68-.9-24.35-8.84-4.6-5.49-12.22-5.27-18.86-6.6-2.93-.58-8.1,2-7.72-4.28.29-4.76,1.79-9,7.47-9.85a52.94,52.94,0,0,1,6.76-.64c7.73-.09,4.18-3.52,1.8-6.77,10.41-.19,20.74-2.09,27.71,9,5.49,8.72,13.27,16.29,9.15,28Z"/><path class="cls-1" d="M732.5,531.86c-.22-5.23-5.34-3.51-8.52-3.77-4.85-.39-9.75,0-14.63-.12-7.43-.15-25.7-13-25.09-19.61,1-11.29-5.73-19.65-8-29.54s-4.47-19.92.4-29.48a35.28,35.28,0,0,0,4.14-15.78c.32-23.49-2.55-45.52-20.2-63.9-12.54-13.06-17.68-29.35-10-47.63,1.64-3.91,1.07-8.31.09-12.5a48.19,48.19,0,0,0-46.55-37.33c-22.1,0-44.21,1-66.3.76a197.83,197.83,0,0,1-56.67-8.53c-4-1.23-9-2.74-4-8.54,5.41-6.22,20.81-10.77,26.89-5.73,8.78,7.28,19.68,7.57,29.16,12,18.89,8.9,33.39-3.13,50.6-9-5.7-4-12-.55-16-6,10.19-2.86,20.4,5.43,31.53-1.57-10.74-2.66-21-3-28.75-10-.72-.66-2.57-.39-3.81-.14-5.32,1.06-10.2-.54-15.27-1.86a139.4,139.4,0,0,0-44.46-4.08c-17.12,1.15-31.38,8.17-41,22.81-6.3,9.56-4.65,15.13,5.36,20.57a61.91,61.91,0,0,0,21.15,7c31.62,4.35,63.46,4.86,95.3,4.69,16.59-.09,31.65,2.62,42.62,16.57,2.28,2.91,4.42,5.76,3.52,9.65-1.52,6.58-3.22,13.12-4.79,19.47-24.06-5.61-48.72-7.65-69.89-22.44-9.7-6.78-25.55-3.18-32.16,5.34-6,7.76-12.39,14.05-22.07,16.55a9.75,9.75,0,0,0-4,2.68c-8.18,8.11-18.45,13.05-28,19.17-15.53,9.94-31.25,20.25-35.43,40.39-.93,4.45-2.16,8.83-2.92,13.3-3.42,19.89-7,39.57-21.46,55.32-8.82,9.61-12.75,21.53-14.43,34.47-2.49,19.29-5,38.69-13.42,56.56-3.64,7.72-5,15.91-3,23.74,4.09,16.34.36,30.66-8.48,44.26-.65,2.83,1.32,3.13,3.31,3.44,3.49.4,4.09-4.51,7.82-4.87.28,8.63-3.59,12.62-11.29,13.21a8,8,0,0,0-3.57,2c-5.81,10.05-10.57,21-17.74,29.91-6.68,8.35-9,16.73-7.62,26.76,1.33.57,2.43,0,3.55-.66,3.91-2.46,6.61.36,9.39,2.34a2.4,2.4,0,0,1,.42,3.45c-2.16,2.76-5.21,2.06-8,1.5a14.28,14.28,0,0,0-13.3,3.65c-1.46,1.35-2.66,4.12-5.43,1.83-7.94,4.78-8.8,10.92-2.18,16.75,6.25,5.5,13.63,7.17,21.8,6.09,7.2-.95,14.52-1.59,13.53-11.83,12-4.51,6.94-14.44,6.48-22.27-1.27-21.37,5.05-38.39,24.94-48.73,8.79-4.56,14.66-13.26,14.77-21.59.27-21,13.29-36.07,21.11-53.55.92-2.05,1.57-5,5.35-5.26,5.65,13-3.63,29.26,8.48,40.9.57.55-.7,2.92-1,4.47-.87,4.45-1.68,8.9-2.51,13.36l.15,0c-2.41,8.06-5.31,15.78-10.13,22.92-2.62,3.89-9.08,3.65-9.23,9.53,11.75,2.59,14.19,6.7,9.81,16.15-2.81,6.07-7.55,5.17-12.22,3.34-5.28-2.06-5.12-5.85-2.38-10.11,1.49-2.32,4.18-4.26,2.86-7.65-6.78,1.87-9.73,7.72-13.85,12.63-10.35,12.32-8.23,20.65,7.14,25.62,8.47,2.74,15.78-.08,23.07-4.22,6.05-3.42,2.4-8.6,3.18-13,.72-4,1.48-8.56,3.77-11.74,10.27-14.28,13-33.06,27.92-44.71,6.24-4.89,9.46-16.27,19.49-5.1a2.5,2.5,0,0,0,1.86.38c8.48-.78,4.61,3.46,2.57,6.58-3.88,5.93-8.92,11.15-10.82,18.25.86,5,.16,8.38-6.16,6-6.79,2.45-9.57,7.74-8.19,14.3,1.16,5.54,14.25,11,22.81,9.4,6.47-1.19,7.44-7.3,8.12-12.79.59-4.8.14-10.14,4.18-13.5,5.5-4.58,7.78-9.73,6.64-17-.89-5.64,2.61-7.54,8.15-8.15,6.74-.75,5.87,5.81,9.25,8.08,1.9.56,2.82-.57,3.54-2.05,1.35-5.12-.78-9.72-2.63-14.13-4.64-11.09-8.46-22.52-13.78-33.34-6.24-12.69-5.55-22,4.94-30.81,15.93-13.38,16.38-29.89,12.69-47.91-1.53-7.43-4.66-13.58-13.3-14.75-9.42-1.28-15.14,1.34-19.83,10.29-4.13,7.87-10.26,11.19-19,10.94a30.12,30.12,0,0,1-22.35-10.21c-6.71-7.26-11.56-6.43-16.28,2.3-1.09,2-1.54,4.28-2.35,6.4-2.87,7.54-6,8.29-12,3-6.44-5.59-9-5.44-13.94,1.29-5.89,8-8.66,17.41-11.2,26.86-2.49,9.27-4.48,18.68-7.43,27.83,1.28-13.39,4.88-26.23,8.46-39.08,1.32-4.74,2.49-9.5,2.11-14.4-1.68-21.62,7.17-39.31,20.8-55A36.42,36.42,0,0,0,438,433c1.7-13.22,3.65-26.42,8-39.11,2.51-7.27,6.06-14.09,12.61-18.07,13.07-7.93,25.35-17,38.4-25,11.81-7.23,24.93-12.94,34.32-23.7,11.68-13.39,14.32-13.79,27.8-3,17.42,10.11,37.35,12.64,56.16,18.7-5.49,4.36-6,5.73-2.38,12.41,4,7.51,7.41,15.22,8.44,23.7.46,3.76,1.27,8.53-3.27,10.25-4.38,1.65-7.12-2.15-9.52-5.2-4.94-6.27-6.41-14.13-9.4-21.29-7-16.79-20.4-24.54-39.4-22.62-1.36,7.58,2.14,13.63,7.64,17.67,10.44,7.67,15.27,18.2,17.69,30.23,4.54,22.58,14.5,43.52,19.65,65.86a8.93,8.93,0,0,1-2.18-3.11c-1.23-2.39-1-5.05-1.34-7.59-1.87-12.93-5-15.24-18.05-13a13.77,13.77,0,0,0-2.73,1.09A46.06,46.06,0,0,1,569,436.55c-4.24,1.31-9.74,1.69-10.48,7.21-.85,6.4,1.37,13.64,6.68,16.2,9.2,4.44,16,11.49,23.83,17.42,1.34.55,2.68,1.06,4,1.51a67,67,0,0,1,8,3.41c9.89,4.82,20,7.67,30.69,2.37,4-2,6.78.57,9.75,2.44,14,8.86,27.62,18.22,38.53,30.91,10.37,12.07,23.27,18.56,39.29,17.2,6.19-.52,4,3,4,5.84a1.45,1.45,0,0,0,2.23.54C732.07,541.34,732.69,536.1,732.5,531.86ZM484.56,662.34c-3.35-.72-7.21-1.2-8.32-5.34-.26-1,.3-2.93,1.07-3.33,3.09-1.63,5.25,1.27,7.74,2.28,2.84,1.15,6.46.87,8.37,4.08C490.93,662.69,487.74,663,484.56,662.34ZM450.3,611.67c1.9-1.33,3.77-2.94,6.13-1.72,2.61,1.36,1.62,3.9,1.28,6.07-.66,4.18-4.1,6.44-6.57,9.37-2.67,3.16-5,4.57-6.34-1a7.41,7.41,0,0,0-2-3.95C447.67,619.67,447.06,614,450.3,611.67Z"/><path class="cls-1" d="M724,541.69c-3-1.68-5.65.24-8.45.64-9.18,1.33-18.24,1.51-26.25-4.1C678.63,530.78,668,523.45,663,510.47a23.76,23.76,0,0,0-18.89-15.33c-18.06-2.74-35.94-1.92-52.76,6.46-5.47,2.73-10.33,6.12-9.82,13.09s6,9.46,11.58,11.71c6.14,2.48,12.61,3.85,20.39,5-5.1,3.39-9.25,4-13.45,3.28-17.59-3-28.72-14.34-36.33-29.4-3.25-6.44-.15-11.77,6.92-14.63,5.79-2.33,12-2.53,18.09-3.55,7.39-1.23,8.21-3.69,4.17-10.21L591,475.26c-4.17,2.88-5.88-1.08-7.87-3.16-10-10.51-13.39-10.94-22.14-.13-5.79,7.16-11,10.73-20.58,6.3-7.08-3.27-11.59,1.68-8.92,9.17a197.94,197.94,0,0,1,7.12,26.21c.9,4.31,2.95,8.09,7.34,9.68,8.31,3,6.91,8,3.16,13.68-2.2,3.33-5.46,5.52-8.4,8.08-12.81,11.14-17.5,41.13-8.71,55.22,1.6,2.56,3.41,5.06,6.8,4.67s4.67-3.15,5.66-6c1.25-3.64,1.7-7.48,2.9-11.19.1,4.76.75,9.72-1.13,14.14-5.69,13.32.64,23.7,8,34.51-2.67-2-4.73-5.1-7.88-2.95-2.8,1.92-2.37,5.2-1.63,8.06,1,4.07,1.88,8.27,4.7,11.63a1.77,1.77,0,0,0,2.59-.11c2.18.79,3.63-1.71,6.32-.72,16,5.88,39.9-5,45.67-20.6.65-1.76,1.33-4.43.49-5.69-4.68-7,0-12.93,1.83-19.16,3.94-13.35,12.68-22.11,25.91-26.21,2.47-.77,5.56-.78,7-2.83,4.18-5.83,8.6-2.43,10.09.94,5.4,12.19,10.46,25,2.38,38-3.81,6.09-3.59,11.55-.66,17.38,2.23,4.44,2.31,8.17-.61,12.63-6.68,10.18-3.09,17.85,9,20.13,3.81.72,7.71.94,11.57,1.42,6.39.79,10.16-3.44,9.39-8.4a211.6,211.6,0,0,1-2.59-36.14c0-1.18-.84-2.45-1.48-3.57a28.4,28.4,0,0,1-1.74-26.28c4.7-10.74,8.06-20.9,2.57-32.22-1.15-2.37,1.57-4.08,2.11-6.22a5.67,5.67,0,0,0-3.44-2.28c-2.49-.64-4.93-1.2-6.76-3.34-2.09-2.45-1.84-7.64-6.84-6.73-3.67.67-3.86,5.18-6.72,7.71.6-4.33-.41-9,4-10.72,4.74-1.83,9.45-.14,13.63,2.61,3.34,2.21,4.59,6.12,7.17,9a1.84,1.84,0,0,0,2.44-.25c4-2.84,7.4.32,11,1.12,13.52,3.07,27.28-1.53,31.85-10.94ZM581.86,576.24c-8-3.47-11.56-9.72-9.51-16,1.91-5.84,7.83-3.22,14.1.3C577.76,564,578.34,569.65,581.86,576.24Z"/><path class="cls-1" d="M433,173.24c-5.15-5.66-3.64-8-.35-13.34,10.21-16.55-.36-34.73-19.72-34.5-6.79.08-13.55,1.6-20.34,1.69-5,.07-5.84,2.18-5.77,6.5.2,13,.07,26,.07,38.95,0,12.65.2,25.32-.09,38-.12,5.22,1.32,6.84,6.69,5.92a130,130,0,0,1,22.23-2.21c9.88,0,15.87-4.77,19.14-13.37C438.44,191.44,440.07,181,433,173.24ZM401.56,152c-3.81-11.72,1.55-14.3,10.13-14.16,7.28.12,10.56,4.35,11,11,.5,8.48-5.93,13.74-16.2,14C394.78,163.11,403.6,153.91,401.56,152Zm19.08,47.31c-4.51,6-12.24,6.22-17.73,4.31-5.29-1.85-1.06-9.19-2.68-14.16,2.57-4.19-3.88-11.41,4.26-13.7,6.3-1.77,13.27-2.37,17.28,4.47A16.48,16.48,0,0,1,420.64,199.3Z"/><path class="cls-1" d="M561,168.6c10.89-7.22,10.33-18.79,8-29.88-2.07-9.73-10.49-16.11-21.4-16.87-8.1-.57-16.26-.17-24.38-.51-4-.16-4.88,1.51-4.87,5.14.11,27,.17,54,0,81,0,5,2,6,6.36,5.78,4-.23,7.83.54,7.51-5.73-.42-8.44-.35-16.93,0-25.38.14-3.15-2.76-8.14,4.13-8.75,5.89-.53,6.87,3.14,8.19,7.41,2.19,7.13,5.56,14,7.09,21.22,2.22,10.44,7.87,13.74,18.62,10.78-3.93-11.29-7.88-22.53-11.76-33.8C557.14,175.09,555.88,172,561,168.6ZM540,161c-13.23.86-5.71-8.89-8.4-13.87,3.67-3.74-5.15-12.57,5.53-13.18,13.62-.77,19.27,3.85,19.11,14.37C556,158,552.2,160.2,540,161Z"/><path class="cls-1" d="M499.16,137.21c-3.43-9.87-10.3-16.64-21.38-17-11.38-.38-18.86,5.85-23.46,15.79-4.74,10.22-5.86,21.15-6,35.44a67.69,67.69,0,0,0,4.64,26.4c3.88,9.43,9.79,16.08,21.64,16.28,12.34.22,20-5.59,24-16C506.36,178.06,506.2,157.48,499.16,137.21Zm-12.63,55.67c-1.52,4.68-4.8,8.91-10.56,8.59-5.51-.31-8.45-4.38-10.32-9.14-3.13-8-3.86-16.37-3.51-24.87-.28-8.82.28-17.54,3.94-25.73,1.93-4.32,4.74-8,9.95-8.16s8.3,3.42,10,7.9C492.46,158.51,492.09,175.76,486.53,192.88Z"/><path class="cls-1" d="M293.55,223.09q-9.35-33.71-18.51-67.46c-2.37-8.67-5.39-9.95-13.31-6.07-4,2-3.65,5.87-4.44,9.1-6.92,28.53-13.66,57.1-20.43,85.54,12.55.21,14-.94,16.13-12.83.51-2.87,1.61-5.71,1.62-8.57,0-5.9,3.65-7.61,8.5-8.57,11.45-2.26,12.7-1.66,15.66,12.14,1.44,6.73,4.23,7.58,10.57,6.12C296.1,230.93,294.78,227.53,293.55,223.09Zm-24.11-21c-3.11.52-6.53,3.25-9.16,1.38s.2-5.32.63-8c1.18-7.3,2.84-14.52,4.83-24.29,2.46,10.44,4.23,18.26,6.16,26C272.53,199.7,272.74,201.5,269.44,202.07Z"/><path class="cls-1" d="M468.19,440.16c1.15,4.61,2.16,9.26,3.47,13.82,2.23,7.83,4.46,15.65,12.3,20.18,1.85,1.07,4.07,3.23,2.61,5.59s-3.88,1.19-6.09.18-4.27-3.46-7.06-1.24c-6,4.76-11.87,3.1-14.83-2.64s-5.24-12.62.63-18.7C463.86,452.55,467.31,447.14,468.19,440.16Z"/><path class="cls-1" d="M559.84,322.81c1,5.61,6.08,11.73-2,16.18-1.78-1.39-3.82-2.56-5.29-4.23a8.49,8.49,0,0,1-1.29-9.95C553.24,320.74,556.81,322.84,559.84,322.81Z"/></g></svg>